<svg width="40" height="40" viewBox="0 0 40 40" fill="none" xmlns="http://www.w3.org/2000/svg">
<g clip-path="url(#clip0_107_36)">
<path d="M10 2.22223C7.54542 2.22223 5.55556 4.21206 5.55556 6.66667V33.3333C5.55556 35.7879 7.54539 37.7778 10 37.7778H30C32.4546 37.7778 34.4444 35.7879 34.4444 33.3333V6.66667C34.4444 4.21208 32.4546 2.22223 30 2.22223H10ZM10 0H30C33.6819 0 36.6667 2.98477 36.6667 6.66667V33.3333C36.6667 37.0152 33.6819 40 30 40H10C6.3181 40 3.33333 37.0152 3.33333 33.3333V6.66667C3.33333 2.98477 6.3181 0 10 0ZM12.2222 6.66667C10.9949 6.66667 10 7.66158 10 8.8889V11.1111C10 12.3384 10.9949 13.3333 12.2222 13.3333H27.7778C29.0051 13.3333 30 12.3384 30 11.1111V8.8889C30 7.6616 29.0051 6.66667 27.7778 6.66667H12.2222ZM12.2222 4.44444H27.7778C30.2324 4.44444 32.2222 6.43429 32.2222 8.8889V11.1111C32.2222 13.5657 30.2324 15.5556 27.7778 15.5556H12.2222C9.76762 15.5556 7.77777 13.5657 7.77777 11.1111V8.8889C7.77777 6.43429 9.76762 4.44444 12.2222 4.44444ZM10 17.7778H12.2222C13.4495 17.7778 14.4444 18.7727 14.4444 20C14.4444 21.2273 13.4495 22.2222 12.2222 22.2222H10C8.77271 22.2222 7.77777 21.2273 7.77777 20C7.77777 18.7727 8.77271 17.7778 10 17.7778ZM18.8889 17.7778H21.1111C22.3384 17.7778 23.3333 18.7727 23.3333 20C23.3333 21.2273 22.3384 22.2222 21.1111 22.2222H18.8889C17.6616 22.2222 16.6667 21.2273 16.6667 20C16.6667 18.7727 17.6616 17.7778 18.8889 17.7778ZM27.7778 17.7778H30C31.2273 17.7778 32.2222 18.7727 32.2222 20C32.2222 21.2273 31.2273 22.2222 30 22.2222H27.7778C26.5505 22.2222 25.5556 21.2273 25.5556 20C25.5556 18.7727 26.5505 17.7778 27.7778 17.7778ZM10 24.4444H12.2222C13.4495 24.4444 14.4444 25.4394 14.4444 26.6667C14.4444 27.894 13.4495 28.8889 12.2222 28.8889H10C8.77271 28.8889 7.77777 27.894 7.77777 26.6667C7.77777 25.4394 8.77271 24.4444 10 24.4444ZM18.8889 24.4444H21.1111C22.3384 24.4444 23.3333 25.4394 23.3333 26.6667C23.3333 27.894 22.3384 28.8889 21.1111 28.8889H18.8889C17.6616 28.8889 16.6667 27.894 16.6667 26.6667C16.6667 25.4394 17.6616 24.4444 18.8889 24.4444ZM27.7778 24.4444H30C31.2273 24.4444 32.2222 25.4394 32.2222 26.6667C32.2222 27.894 31.2273 28.8889 30 28.8889H27.7778C26.5505 28.8889 25.5556 27.894 25.5556 26.6667C25.5556 25.4394 26.5505 24.4444 27.7778 24.4444ZM10 31.1111H12.2222C13.4495 31.1111 14.4444 32.106 14.4444 33.3333C14.4444 34.5606 13.4495 35.5556 12.2222 35.5556H10C8.77271 35.5556 7.77777 34.5606 7.77777 33.3333C7.77777 32.106 8.77271 31.1111 10 31.1111ZM18.8889 31.1111H21.1111C22.3384 31.1111 23.3333 32.106 23.3333 33.3333C23.3333 34.5606 22.3384 35.5556 21.1111 35.5556H18.8889C17.6616 35.5556 16.6667 34.5606 16.6667 33.3333C16.6667 32.106 17.6616 31.1111 18.8889 31.1111ZM27.7778 31.1111H30C31.2273 31.1111 32.2222 32.106 32.2222 33.3333C32.2222 34.5606 31.2273 35.5556 30 35.5556H27.7778C26.5505 35.5556 25.5556 34.5606 25.5556 33.3333C25.5556 32.106 26.5505 31.1111 27.7778 31.1111Z" fill="#FF0000" stroke="#FF0000" stroke-width="0.0192"/>
</g>
<defs>
<clipPath id="clip0_107_36">
<rect width="40" height="40" fill="white"/>
</clipPath>
</defs>
</svg>
