<svg width="40" height="40" viewBox="0 0 40 40" fill="none" xmlns="http://www.w3.org/2000/svg">
<path d="M39.3334 30.6666H0.666641C0.298672 30.6666 0 30.9453 0 31.2887V39.3773C0 39.7213 0.298672 40 0.666641 40H39.3333C39.7013 40 39.9999 39.7213 39.9999 39.378V31.2887C40 30.9453 39.7013 30.6666 39.3334 30.6666Z" fill="#FF0000" stroke="#FF0000" stroke-width="0.002"/>
<path d="M38.6666 28.6666L35.3219 11.212C35.264 10.8959 34.988 10.6666 34.6666 10.6666H32V6H34.6666C35.0346 6 35.3333 5.70133 35.3333 5.33336V0.666641C35.3333 0.298672 35.0346 0 34.6666 0H24C23.632 0 23.3334 0.298672 23.3334 0.666641V5.33328C23.3334 5.70125 23.632 5.99992 24 5.99992H26.6666V10.6666H15.3334V9.3332C15.3334 8.96523 15.0347 8.66656 14.6667 8.66656H10C9.63203 8.66656 9.33335 8.96523 9.33335 9.3332V10.6666H5.33335C5.01203 10.6666 4.73601 10.8959 4.67804 11.2119L1.33335 28.6666C1.25734 29.0766 1.58335 29.3332 2 29.3332H38C38.4166 29.3334 38.7427 29.0766 38.6666 28.6666ZM28 6H30.6666V10.6666H28V6ZM10.6666 10.3334C10.6666 10.1494 10.8159 10 11 10H13.6666C13.8506 10 14 10.1493 14 10.3334V17C14 17.184 13.8507 17.3334 13.6666 17.3334H11C10.816 17.3334 10.6666 17.1841 10.6666 17V10.3334ZM16.6666 19.6666C16.6666 19.8506 16.5173 20 16.3333 20H8.33328C8.14929 20 7.99992 19.8507 7.99992 19.6666V17.6666C7.99992 17.4827 8.14921 17.3333 8.33328 17.3333H8.99992C9.1839 17.3333 9.33328 17.4826 9.33328 17.6666V18C9.33328 18.368 9.63195 18.6666 9.99992 18.6666H14.6666C15.0345 18.6666 15.3332 18.368 15.3332 18V17.6666C15.3332 17.4827 15.4825 17.3333 15.6666 17.3333H16.3332C16.5172 17.3333 16.6666 17.4826 16.6666 17.6666L16.6666 19.6666ZM21.3334 27.3334H20C19.6313 27.3334 19.3334 27.0347 19.3334 26.6667C19.3334 26.2988 19.6313 26.0001 20 26.0001H21.3334C21.702 26.0001 22 26.2988 22 26.6667C22 27.0347 21.702 27.3334 21.3334 27.3334ZM21.3334 24.6666H20C19.6313 24.6666 19.3334 24.368 19.3334 24C19.3334 23.632 19.6313 23.3334 20 23.3334H21.3334C21.702 23.3334 22 23.632 22 24C22 24.368 21.702 24.6666 21.3334 24.6666ZM21.3334 22H20C19.6313 22 19.3334 21.7013 19.3334 21.3334C19.3334 20.9654 19.6313 20.6667 20 20.6667H21.3334C21.702 20.6667 22 20.9654 22 21.3334C22 21.7013 21.702 22 21.3334 22ZM26.6666 27.3334H25.3333C24.9646 27.3334 24.6666 27.0347 24.6666 26.6667C24.6666 26.2988 24.9646 26.0001 25.3333 26.0001H26.6666C27.0353 26.0001 27.3333 26.2988 27.3333 26.6667C27.3333 27.0347 27.0353 27.3334 26.6666 27.3334ZM26.6666 24.6666H25.3333C24.9646 24.6666 24.6666 24.368 24.6666 24C24.6666 23.632 24.9646 23.3334 25.3333 23.3334H26.6666C27.0353 23.3334 27.3333 23.632 27.3333 24C27.3333 24.368 27.0353 24.6666 26.6666 24.6666ZM26.6666 22H25.3333C24.9646 22 24.6666 21.7013 24.6666 21.3334C24.6666 20.9654 24.9646 20.6667 25.3333 20.6667H26.6666C27.0353 20.6667 27.3333 20.9654 27.3333 21.3334C27.3334 21.7013 27.0353 22 26.6666 22ZM32 27.3334H30.6666C30.298 27.3334 30 27.0347 30 26.6667C30 26.2988 30.298 26.0001 30.6666 26.0001H32C32.3687 26.0001 32.6666 26.2988 32.6666 26.6667C32.6666 27.0347 32.3687 27.3334 32 27.3334ZM32 24.6666H30.6666C30.298 24.6666 30 24.368 30 24C30 23.632 30.298 23.3334 30.6666 23.3334H32C32.3687 23.3334 32.6666 23.632 32.6666 24C32.6666 24.368 32.3687 24.6666 32 24.6666ZM32 22H30.6666C30.298 22 30 21.7013 30 21.3334C30 20.9654 30.298 20.6667 30.6666 20.6667H32C32.3687 20.6667 32.6666 20.9654 32.6666 21.3334C32.6666 21.7013 32.3687 22 32 22ZM32.6666 18C32.6666 18.368 32.368 18.6666 32 18.6666H20C19.632 18.6666 19.3334 18.368 19.3334 18V13.3334C19.3334 12.9654 19.632 12.6667 20 12.6667H32C32.368 12.6667 32.6666 12.9654 32.6666 13.3334V18Z" fill="#FF0000" stroke="#FF0000" stroke-width="0.002"/>
<path d="M31 14H21C20.816 14 20.6666 14.1493 20.6666 14.3334V17C20.6666 17.184 20.8159 17.3334 21 17.3334H31C31.184 17.3334 31.3333 17.1841 31.3333 17V14.3334C31.3333 14.1494 31.184 14 31 14Z" fill="#FF0000" stroke="#FF0000" stroke-width="0.002"/>
</svg>
