<svg width="40" height="32" viewBox="0 0 40 32" fill="none" xmlns="http://www.w3.org/2000/svg">
<path fill-rule="evenodd" clip-rule="evenodd" d="M40 2.22222C40 2.81159 39.7659 3.37682 39.3491 3.79357C38.9324 4.21032 38.3671 4.44444 37.7778 4.44444H2.22222C1.63285 4.44444 1.06762 4.21032 0.650874 3.79357C0.234126 3.37682 0 2.81159 0 2.22222C0 1.63285 0.234126 1.06762 0.650874 0.650874C1.06762 0.234126 1.63285 0 2.22222 0H37.7778C38.3671 0 38.9324 0.234126 39.3491 0.650874C39.7659 1.06762 40 1.63285 40 2.22222ZM40 15.5556C40 16.1449 39.7659 16.7102 39.3491 17.1269C38.9324 17.5437 38.3671 17.7778 37.7778 17.7778H2.22222C1.63285 17.7778 1.06762 17.5437 0.650874 17.1269C0.234126 16.7102 0 16.1449 0 15.5556C0 14.9662 0.234126 14.401 0.650874 13.9842C1.06762 13.5675 1.63285 13.3333 2.22222 13.3333H37.7778C38.3671 13.3333 38.9324 13.5675 39.3491 13.9842C39.7659 14.401 40 14.9662 40 15.5556ZM37.7778 31.1111C38.3671 31.1111 38.9324 30.877 39.3491 30.4602C39.7659 30.0435 40 29.4783 40 28.8889C40 28.2995 39.7659 27.7343 39.3491 27.3175C38.9324 26.9008 38.3671 26.6667 37.7778 26.6667H2.22222C1.63285 26.6667 1.06762 26.9008 0.650874 27.3175C0.234126 27.7343 0 28.2995 0 28.8889C0 29.4783 0.234126 30.0435 0.650874 30.4602C1.06762 30.877 1.63285 31.1111 2.22222 31.1111H37.7778Z" fill="white" stroke="black" stroke-width="0.0002"/>
</svg>
