<svg width="40" height="40" viewBox="0 0 40 40" fill="none" xmlns="http://www.w3.org/2000/svg">
<g clip-path="url(#clip0_107_53)">
<path d="M0 0H40V40H0V0Z" stroke="#FF0000" stroke-width="0.00024"/>
<path d="M35 19.41V35C35 35.442 34.8244 35.866 34.5118 36.1785C34.1993 36.4911 33.7754 36.6667 33.3333 36.6667H6.66666C6.22464 36.6667 5.80071 36.4911 5.48815 36.1785C5.17559 35.866 5 35.442 5 35V19.41C3.92386 18.1933 3.33092 16.6244 3.33333 15V5.00001C3.33333 4.55798 3.50893 4.13406 3.82149 3.8215C4.13405 3.50894 4.55797 3.33334 5 3.33334H35C35.442 3.33334 35.8659 3.50894 36.1785 3.8215C36.4911 4.13406 36.6667 4.55798 36.6667 5.00001V15C36.6667 16.69 36.0367 18.2333 35 19.41ZM23.3333 15C23.3333 14.558 23.5089 14.1341 23.8215 13.8215C24.134 13.5089 24.558 13.3333 25 13.3333C25.442 13.3333 25.8659 13.5089 26.1785 13.8215C26.4911 14.1341 26.6667 14.558 26.6667 15C26.6667 15.8841 27.0179 16.7319 27.643 17.357C28.2681 17.9822 29.1159 18.3333 30 18.3333C30.8841 18.3333 31.7319 17.9822 32.357 17.357C32.9821 16.7319 33.3333 15.8841 33.3333 15V6.66668H6.66666V15C6.66666 15.8841 7.01785 16.7319 7.64298 17.357C8.2681 17.9822 9.11594 18.3333 10 18.3333C10.8841 18.3333 11.7319 17.9822 12.357 17.357C12.9821 16.7319 13.3333 15.8841 13.3333 15C13.3333 14.558 13.5089 14.1341 13.8215 13.8215C14.134 13.5089 14.558 13.3333 15 13.3333C15.442 13.3333 15.8659 13.5089 16.1785 13.8215C16.4911 14.1341 16.6667 14.558 16.6667 15C16.6667 15.8841 17.0179 16.7319 17.643 17.357C18.2681 17.9822 19.1159 18.3333 20 18.3333C20.8841 18.3333 21.7319 17.9822 22.357 17.357C22.9821 16.7319 23.3333 15.8841 23.3333 15Z" fill="#FF0000" stroke="#FF0000" stroke-width="0.00024"/>
</g>
<defs>
<clipPath id="clip0_107_53">
<rect width="40" height="40" fill="white"/>
</clipPath>
</defs>
</svg>
