<svg width="40" height="40" viewBox="0 0 40 40" fill="none" xmlns="http://www.w3.org/2000/svg">
<path d="M36.55 11.2667L30.9333 33.8167C30.5333 35.5 29.0333 36.6667 27.3 36.6667H5.40001C2.88335 36.6667 1.08337 34.1998 1.83336 31.7832L8.85002 9.25009C9.33335 7.68343 10.7834 6.59995 12.4167 6.59995H32.9167C34.5 6.59995 35.8167 7.56663 36.3667 8.89996C36.6833 9.61663 36.75 10.4334 36.55 11.2667Z" stroke="#FF0000" stroke-width="1.5" stroke-miterlimit="10"/>
<path d="M26.6667 36.6667H34.6333C36.7833 36.6667 38.4667 34.85 38.3167 32.7L36.6667 10" stroke="#FF0000" stroke-width="1.5" stroke-miterlimit="10" stroke-linecap="round" stroke-linejoin="round"/>
<path d="M16.1333 10.6333L17.8667 3.43344" stroke="#FF0000" stroke-width="1.5" stroke-miterlimit="10" stroke-linecap="round" stroke-linejoin="round"/>
<path d="M27.3 10.65L28.8667 3.41675" stroke="#FF0000" stroke-width="1.5" stroke-miterlimit="10" stroke-linecap="round" stroke-linejoin="round"/>
<path d="M12.8333 20H26.1667" stroke="#FF0000" stroke-width="1.5" stroke-miterlimit="10" stroke-linecap="round" stroke-linejoin="round"/>
<path d="M11.1667 26.6667H24.5" stroke="#FF0000" stroke-width="1.5" stroke-miterlimit="10" stroke-linecap="round" stroke-linejoin="round"/>
</svg>
