<svg width="40" height="40" viewBox="0 0 40 40" fill="none" xmlns="http://www.w3.org/2000/svg">
<path fill-rule="evenodd" clip-rule="evenodd" d="M13.3333 10C11.4924 10 10 11.4924 10 13.3333C10 15.1743 11.4924 16.6667 13.3333 16.6667C15.1743 16.6667 16.6667 15.1743 16.6667 13.3333C16.6667 11.4924 15.1743 10 13.3333 10ZM6.66667 13.3333C6.66667 9.65144 9.65144 6.66667 13.3333 6.66667C17.0152 6.66667 20 9.65144 20 13.3333C20 17.0152 17.0152 20 13.3333 20C9.65144 20 6.66667 17.0152 6.66667 13.3333ZM28.3333 25C26.4923 25 25 26.4923 25 28.3333C25 30.1743 26.4923 31.6667 28.3333 31.6667C30.1743 31.6667 31.6667 30.1743 31.6667 28.3333C31.6667 26.4923 30.1743 25 28.3333 25ZM21.6667 28.3333C21.6667 24.6515 24.6515 21.6667 28.3333 21.6667C32.0152 21.6667 35 24.6515 35 28.3333C35 32.0152 32.0152 35 28.3333 35C24.6515 35 21.6667 32.0152 21.6667 28.3333ZM32.8452 11.1785C33.496 10.5276 33.496 9.47237 32.8452 8.82149C32.1943 8.17062 31.139 8.17062 30.4882 8.82149L8.82149 30.4882C8.17062 31.139 8.17062 32.1943 8.82149 32.8452C9.47237 33.496 10.5276 33.496 11.1785 32.8452L32.8452 11.1785Z" fill="#FF0000" stroke="#FF0000" stroke-width="0.00024"/>
</svg>
