<svg width="56" height="41" viewBox="0 0 56 41" fill="none" xmlns="http://www.w3.org/2000/svg">
<path d="M3.62813 0.700012C1.90078 0.700012 0.5 2.08092 0.5 3.77434V32.0514C0.5 33.7448 2.07266 35.2946 3.8 35.2946H8.30313C8.82734 38.3605 11.5344 40.7 14.8 40.7C18.0656 40.7 20.7727 38.3605 21.2969 35.2946H31.4719C33.1949 35.2946 34.6 33.9137 34.6 32.2203V3.8419C34.6 2.11049 33.2121 0.700012 31.5063 0.700012H3.62813ZM36.8 8.26758V35.2946C37.3285 38.3563 40.1344 40.7 43.4 40.7C46.6656 40.7 49.3727 38.3563 49.8969 35.2946H52.2C53.9273 35.2946 55.5 33.749 55.5 32.0514V21.646C55.5 19.4711 53.9059 17.2498 53.7125 16.9838L49.1406 10.9703C48.0922 9.72873 46.4465 8.26758 44.5 8.26758H36.8ZM42.3 13.673H48.4531L51.9594 18.2676C52.3332 18.787 53.3 20.3791 53.3 21.646V22.3216H42.3C41.2 22.3216 40.1 21.2406 40.1 20.1595V15.8351C40.1 14.64 41.2 13.673 42.3 13.673ZM14.8 29.8892C17.2277 29.8892 19.2 31.8275 19.2 34.2135C19.2 36.5995 17.2277 38.5378 14.8 38.5378C12.3723 38.5378 10.4 36.5995 10.4 34.2135C10.4 31.8275 12.3723 29.8892 14.8 29.8892ZM43.4 29.8892C45.8277 29.8892 47.8 31.8275 47.8 34.2135C47.8 36.5995 45.8277 38.5378 43.4 38.5378C40.9723 38.5378 39 36.5995 39 34.2135C39 31.8275 40.9723 29.8892 43.4 29.8892Z" fill="#FF0000" stroke="#FF0000" stroke-width="0.0005"/>
</svg>
