<svg width="40" height="40" viewBox="0 0 40 40" fill="none" xmlns="http://www.w3.org/2000/svg">
<path d="M5 35C5 35.6933 5.24 36.2933 5.72 36.8C6.2 37.3067 6.8 37.5467 7.52 37.52H32.52C33.1867 37.52 33.7733 37.28 34.28 36.8C34.7867 36.32 35.0267 35.72 35 35C35 33.8 34.72 32.5867 34.16 31.36C33.6 30.1333 32.8667 29.04 31.96 28.08C31.0533 27.12 30.0133 26.2267 28.84 25.4C27.6667 24.5733 26.4667 23.9467 25.24 23.52C26.7067 22.6133 27.8667 21.4 28.72 19.88C29.5733 18.36 30 16.7333 30 15V12.52C30 9.74666 29.0267 7.38666 27.08 5.43999C25.1333 3.49332 22.7733 2.51999 20 2.51999C17.2267 2.51999 14.8667 3.49332 12.92 5.43999C10.9733 7.38666 10 9.74666 10 12.52V15C10 16.76 10.4267 18.3867 11.28 19.88C12.1333 21.3733 13.2933 22.5867 14.76 23.52C13.5067 23.9733 12.3067 24.6 11.16 25.4C10.0133 26.2 8.97333 27.0933 8.04 28.08C7.10667 29.0667 6.37333 30.16 5.84 31.36C5.30667 32.56 5.02667 33.7733 5 35Z" fill="#FF0000" stroke="#FF0000"/>
</svg>
